<svg xmlns="http://www.w3.org/2000/svg" viewBox="0 0 32 32">
  <defs>
    <linearGradient id="gold" x1="0%" y1="0%" x2="100%" y2="100%">
      <stop offset="0%" style="stop-color:#D4AF37" />
      <stop offset="100%" style="stop-color:#F4E4BC" />
    </linearGradient>
    <linearGradient id="blue" x1="0%" y1="0%" x2="100%" y2="100%">
      <stop offset="0%" style="stop-color:#4F46E5" />
      <stop offset="100%" style="stop-color:#7C3AED" />
    </linearGradient>
  </defs>
  <circle cx="16" cy="16" r="15" fill="url(#blue)"/>
  <circle cx="16" cy="16" r="13" fill="#1e1b4b"/>
  <circle cx="16" cy="16" r="11" fill="#0f0d24"/>
  <rect x="15" y="5" width="2" height="4" rx="1" fill="url(#gold)"/>
  <rect x="15" y="23" width="2" height="4" rx="1" fill="url(#gold)"/>
  <rect x="5" y="15" width="4" height="2" rx="1" fill="url(#gold)"/>
  <rect x="23" y="15" width="4" height="2" rx="1" fill="url(#gold)"/>
  <path d="M15.5 16 L15.5 9 Q16 8 16.5 9 L16.5 16 Z" fill="url(#gold)"/>
  <path d="M15.7 16 L15.7 7 Q16 6 16.3 7 L16.3 16 Z" fill="white"/>
  <circle cx="16" cy="16" r="2" fill="url(#gold)"/>
</svg>